<svg xmlns="http://www.w3.org/2000/svg" width="900" height="1200" viewBox="0 0 900 1200" role="img" aria-label="Image produit indisponible">
  <defs>
    <linearGradient id="bg" x1="0" y1="0" x2="1" y2="1">
      <stop offset="0" stop-color="#faf4e8"/>
      <stop offset="1" stop-color="#efe2c4"/>
    </linearGradient>
    <linearGradient id="gold" x1="0" y1="0" x2="1" y2="1">
      <stop offset="0" stop-color="#d7a63c"/>
      <stop offset="1" stop-color="#9b6d1d"/>
    </linearGradient>
  </defs>
  <rect width="900" height="1200" fill="url(#bg)"/>
  <rect x="64" y="64" width="772" height="1072" rx="28" fill="#fffaf0" stroke="#e6d6ad" stroke-width="2"/>
  <path d="M420 240h60v116c0 38 48 64 48 124v378c0 74-45 122-78 122s-78-48-78-122V480c0-60 48-86 48-124V240Z" fill="#ffffff" stroke="#d7a63c" stroke-width="8"/>
  <rect x="406" y="184" width="88" height="70" rx="16" fill="url(#gold)"/>
  <rect x="388" y="592" width="124" height="160" rx="18" fill="#7b1f2a"/>
  <path d="M408 652h84" stroke="#d7a63c" stroke-width="8" stroke-linecap="round"/>
  <path d="M420 698h60" stroke="#f7e6b0" stroke-width="6" stroke-linecap="round"/>
  <text x="450" y="1040" text-anchor="middle" font-family="Georgia, serif" font-size="34" fill="#7b1f2a">La Petite Bouteille</text>
  <text x="450" y="1086" text-anchor="middle" font-family="Arial, sans-serif" font-size="24" fill="#7a6a4c">Image en cours de mise a jour</text>
</svg>
